<?xml version="1.0" encoding="UTF-8" standalone="no"?>
<!-- Created with Inkscape (http://www.inkscape.org/) -->

<svg
   width="756.12598"
   height="725.65002"
   viewBox="0 0 200.05833 191.995"
   version="1.1"
   id="svg5"
   inkscape:version="1.1 (c68e22c387, 2021-05-23)"
   sodipodi:docname="logo.svg"
   xmlns:inkscape="http://www.inkscape.org/namespaces/inkscape"
   xmlns:sodipodi="http://sodipodi.sourceforge.net/DTD/sodipodi-0.dtd"
   xmlns="http://www.w3.org/2000/svg"
   xmlns:svg="http://www.w3.org/2000/svg">
  <sodipodi:namedview
     id="namedview7"
     pagecolor="#505050"
     bordercolor="#eeeeee"
     borderopacity="1"
     inkscape:pageshadow="0"
     inkscape:pageopacity="0"
     inkscape:pagecheckerboard="0"
     inkscape:document-units="px"
     showgrid="false"
     inkscape:zoom="0.67081228"
     inkscape:cx="601.50956"
     inkscape:cy="373.42787"
     inkscape:window-width="1904"
     inkscape:window-height="1041"
     inkscape:window-x="1600"
     inkscape:window-y="0"
     inkscape:window-maximized="0"
     inkscape:current-layer="layer1"
     showborder="true"
     units="px"
     height="726.90552px" />
  <defs
     id="defs2" />
  <g
     inkscape:label="Layer 1"
     inkscape:groupmode="layer"
     id="layer1">
    <path
       style="fill:#665ee8;fill-opacity:1;stroke:#000000;stroke-width:0.747482px;stroke-linecap:butt;stroke-linejoin:miter;stroke-opacity:1"
       d="M 61.253158,131.5403 Z"
       id="path38174"
       inkscape:export-filename="D:\code\AIClub22-23\service-project\public\favicon.ico"
       inkscape:export-xdpi="96.012901"
       inkscape:export-ydpi="96.012901" />
    <path
       id="path38176"
       style="fill:#665ee8;fill-opacity:1;stroke:none;stroke-width:2.82513;stroke-linecap:round;stroke-linejoin:round"
       d="m 151.16836,0.0086 a 17.112855,17.112855 0 0 0 -2.6773,0.209 17.112855,17.112855 0 0 0 -2.6105,0.6278 17.112855,17.112855 0 0 0 -2.4824,1.0278 17.112855,17.112855 0 0 0 -2.2886,1.4029 17.112855,17.112855 0 0 0 -2.0429,1.7431 17.112855,17.112855 0 0 0 -1.7448,2.0426 17.112855,17.112855 0 0 0 -1.403,2.2892 17.112855,17.112855 0 0 0 -1.0269,2.4819 17.112855,17.112855 0 0 0 -0.6263,2.6101 17.112855,17.112855 0 0 0 -0.2119,2.67771 17.112855,17.112855 0 0 0 0.2373,2.8175 17.112855,17.112855 0 0 0 0.6975,2.7404 17.112855,17.112855 0 0 0 1.1405,2.587 c -0.1214,-0.031 -0.2401,-0.065 -0.361,-0.096 -0.7153,-0.1441 -1.423,-0.274 -2.1211,-0.3899 -0.6984,-0.1158 -1.3866,-0.2175 -2.0669,-0.3065 -0.6803,-0.088 -1.3521,-0.1639 -2.0152,-0.226 -0.6625,-0.062 -1.3148,-0.113 -1.9592,-0.1497 -0.6436,-0.037 -1.2781,-0.062 -1.903,-0.073 -0.6249,0 -1.2402,0 -1.8457,0 -0.6054,0 -1.2012,0.034 -1.7871,0.068 -0.586,0.034 -1.1623,0.082 -1.7282,0.1384 -0.5658,0.056 -1.1221,0.1243 -1.6676,0.2006 -0.545,0.079 -1.0801,0.1667 -1.6042,0.2628 -0.5246,0.099 -1.0382,0.2062 -1.5419,0.324 -0.5032,0.1187 -0.9959,0.2458 -1.4773,0.3825 -0.4819,0.1356 -0.9537,0.2825 -1.4134,0.4365 -0.4596,0.1554 -0.9074,0.3176 -1.3448,0.4893 -0.4373,0.1724 -0.8625,0.3509 -1.2772,0.5385 -0.4142,0.1893 -0.8179,0.3839 -1.2089,0.5871 -0.391,0.2034 -0.7712,0.413 -1.1382,0.6305 -0.3678,0.2176 -0.7238,0.4433 -1.0676,0.6747 -0.3438,0.2316 -0.675,0.4695 -0.9942,0.7139 -0.319,0.2429 -0.6255,0.4941 -0.9201,0.7503 -0.2944,0.2571 -0.5769,0.5182 -0.8467,0.7854 -0.2684,0.2684 -0.5255,0.5399 -0.7693,0.8176 -0.243,0.2769 -0.4738,0.5597 -0.6922,0.8467 -0.2175,0.2873 -0.4229,0.5789 -0.6144,0.8747 -0.1921,0.2955 -0.3693,0.5955 -0.5346,0.8992 -0.1638,0.3034 -0.3144,0.6105 -0.452,0.9213 -0.1384,0.31049 -0.2627,0.6249 -0.3723,0.9416 -0.1102,0.3164 -0.2063,0.6359 -0.2879,0.9577 -0.082,0.3218 -0.1497,0.6458 -0.2034,0.9721 -0.054,0.3264 -0.093,0.6543 -0.1187,0.984 -0.028,0.33 -0.037,0.6617 -0.031,0.9945 0,0.3325 0.028,0.6656 0.059,0.9998 0.037,0.2924 0.082,0.5766 0.1299,0.8526 0.054,0.2769 0.1046,0.5444 0.1667,0.8046 0.059,0.2599 0.1271,0.5117 0.1978,0.756 0.073,0.2458 0.1497,0.4814 0.2316,0.7111 0.082,0.2289 0.1724,0.452 0.2656,0.6673 0.093,0.2147 0.1921,0.4235 0.2975,0.6247 0.1045,0.2005 0.2147,0.3949 0.3302,0.5825 0.1159,0.1865 0.2345,0.3684 0.3605,0.5433 0.1243,0.1751 0.2543,0.3427 0.3907,0.5051 0.1357,0.161 0.2769,0.3181 0.421,0.4687 0.1441,0.1497 0.2961,0.2947 0.4509,0.4334 0.1554,0.1384 0.3144,0.2712 0.4791,0.4 0.1639,0.1271 0.3334,0.2514 0.5066,0.3678 0.1723,0.1187 0.3528,0.2289 0.5359,0.3374 0.1836,0.1073 0.3687,0.209 0.5608,0.3082 0.1921,0.099 0.3879,0.1893 0.5882,0.2797 0.2006,0.088 0.4043,0.1723 0.613,0.2542 0.2091,0.079 0.4215,0.1554 0.6382,0.2289 0.4337,0.144 0.8837,0.2768 1.3485,0.3912 0.4658,0.1159 0.9455,0.2176 1.4411,0.3097 0.4958,0.09 1.0046,0.1695 1.5286,0.2401 0.5241,0.071 1.0614,0.13 1.6118,0.1836 0.5509,0.054 1.1136,0.099 1.6891,0.1385 1.1513,0.079 2.3508,0.1384 3.5933,0.1921 1.2414,0.054 2.5243,0.099 3.8436,0.1554 1.3191,0.057 2.6751,0.1215 4.0586,0.2119 0.6916,0.045 1.3911,0.099 2.0968,0.1582 0.7049,0.062 1.4165,0.1299 2.1341,0.209 0.7176,0.079 1.4403,0.1724 2.1677,0.2741 0.7281,0.1017 1.4606,0.2175 2.1977,0.3475 0.7362,0.1299 1.477,0.274 2.2206,0.435 0.743,0.1611 1.4897,0.3373 2.2394,0.5328 0.749,0.195 1.501,0.4094 2.2537,0.6439 0.3768,0.1186 0.7528,0.2401 1.1303,0.3678 0.3766,0.1272 0.7543,0.2599 1.1317,0.3986 0.3775,0.1385 0.7563,0.28339 1.1338,0.43369 0.3782,0.1497 0.7551,0.3065 1.1334,0.4687 0.3774,0.161 0.7549,0.3291 1.1323,0.5037 0.3783,0.1752 0.7557,0.3554 1.1332,0.543 0.3774,0.1865 0.7549,0.3831 1.1317,0.584 0.3766,0.2005 0.7526,0.4085 1.1287,0.6235 0.3751,0.2147 0.7503,0.4362 1.1249,0.6656 0.3752,0.2288 0.7504,0.4667 1.1242,0.7111 0.6452,0.389 1.2811,0.7836 1.9083,1.184 0.6281,0.4 1.2468,0.8051 1.8567,1.219 0.6108,0.4136 1.2117,0.8357 1.8044,1.2657 0.5936,0.4297 1.1775,0.8684 1.7539,1.3168 0.5763,0.4486 1.1441,0.9071 1.7032,1.3767 0.56,0.4698 1.1117,0.9506 1.6544,1.4439 0.5433,0.4932 1.0787,0.9987 1.6064,1.5185 0.5269,0.5192 1.0456,1.0515 1.5575,1.5999 0.5113,0.5483 1.0145,1.1125 1.5109,1.6922 0.4964,0.5794 0.9851,1.175 1.4657,1.7883 0.4814,0.6134 0.956,1.2439 1.4224,1.8934 0.4659,0.6498 0.9247,1.3177 1.3761,2.0062 0.4523,0.6882 0.897,1.3973 1.3343,2.127 0.4379,0.7297 0.8671,1.4804 1.2908,2.2542 0.4241,0.7735 0.8402,1.5699 1.2499,2.3897 0.4096,0.8202 0.8142,1.6641 1.2103,2.5331 0.059,-1.012 0.1073,-2.0536 0.1328,-3.1212 0.028,-0.534 0.028,-1.0744 0.028,-1.6205 0,-0.5464 0,-1.0985 0,-1.6558 0,-0.5572 -0.028,-1.1199 -0.037,-1.6875 -0.028,-0.5676 -0.045,-1.1405 -0.074,-1.7171 -0.031,-0.5766 -0.068,-1.1569 -0.113,-1.7414 -0.045,-0.5848 -0.096,-1.1722 -0.1525,-1.7638 -0.059,-0.5915 -0.1215,-1.1868 -0.195,-1.784 -0.073,-0.5973 -0.1525,-1.1979 -0.2429,-1.7999 -0.088,-0.6023 -0.1837,-1.2061 -0.2871,-1.8121 -0.1045,-0.6057 -0.2147,-1.2134 -0.3379,-1.8219 -0.1214,-0.6082 -0.2514,-1.2179 -0.391,-1.8278 -0.1384,-0.61 -0.2861,-1.2202 -0.4438,-1.8307 -0.1582,-0.6105 -0.3252,-1.2196 -0.5023,-1.8293 -0.1751,-0.6097 -0.3633,-1.2199 -0.5608,-1.8279 -0.1977,-0.6079 -0.4034,-1.2153 -0.6218,-1.8205 -0.2175,-0.6051 -0.4461,-1.2074 -0.6862,-1.8089 -0.2402,-0.60119 -0.4896,-1.20069 -0.7512,-1.79709 -0.2628,-0.5964 -0.5365,-1.1908 -0.8221,-1.7812 -0.2857,-0.5902 -0.5823,-1.1773 -0.8919,-1.7607 -0.3094,-0.5831 -0.6309,-1.1619 -0.9648,-1.7371 -0.3351,-0.5752 -0.6826,-1.1467 -1.0428,-1.7126 -0.3605,-0.5659 -0.732,-1.1264 -1.1184,-1.6818 -0.3862,-0.5554 -0.7863,-1.1058 -1.2004,-1.6496 -0.4134,-0.5441 -0.8408,-1.0832 -1.2826,-1.6149 -0.4419,-0.5314 -0.8979,-1.0557 -1.368,-1.5738 -0.4709,-0.5179 -0.956,-1.0295 -1.456,-1.533 -0.5001,-0.5031 -1.0151,-0.9984 -1.546,-1.486 -0.5305,-0.4876 -1.0746,-0.9673 -1.636,-1.438 -0.5622,-0.4709 -1.1399,-0.9325 -1.7335,-1.3854 -0.5936,-0.4532 -1.2027,-0.8976 -1.829,-1.3315 a 17.112855,17.112855 0 0 0 2.6878,-0.9083 17.112855,17.112855 0 0 0 2.5003,-1.3385 17.112855,17.112855 0 0 0 2.244,-1.733 17.112855,17.112855 0 0 0 1.9284,-2.0804 17.112855,17.112855 0 0 0 1.5578,-2.3711 17.112855,17.112855 0 0 0 1.1453,-2.5958 17.112855,17.112855 0 0 0 0.7004,-2.7488 17.112855,17.112855 0 0 0 0.2373,-2.8266 17.112855,17.112855 0 0 0 -0.028,-0.9269 17.112855,17.112855 0 0 0 -0.076,-0.92271 17.112855,17.112855 0 0 0 -0.1243,-0.9184 17.112855,17.112855 0 0 0 -0.1751,-0.9108 17.112855,17.112855 0 0 0 -0.2232,-0.8996 17.112855,17.112855 0 0 0 -0.2712,-0.8859 17.112855,17.112855 0 0 0 -0.3193,-0.8688 17.112855,17.112855 0 0 0 -0.3669,-0.8526 17.112855,17.112855 0 0 0 -0.4111,-0.8292 17.112855,17.112855 0 0 0 -0.456,-0.8074 17.112855,17.112855 0 0 0 -0.4992,-0.7811 17.112855,17.112855 0 0 0 -0.5399,-0.7518 17.112855,17.112855 0 0 0 -0.5814,-0.7227 17.112855,17.112855 0 0 0 -0.619,-0.6904 17.112855,17.112855 0 0 0 -0.6554,-0.6555 17.112855,17.112855 0 0 0 -0.6893,-0.6189 17.112855,17.112855 0 0 0 -0.7227,-0.5798 17.112855,17.112855 0 0 0 -0.7512,-0.5415 17.112855,17.112855 0 0 0 -0.7811,-0.4995 17.112855,17.112855 0 0 0 -0.8075,-0.4554 17.112855,17.112855 0 0 0 -0.8311,-0.4117 17.112855,17.112855 0 0 0 -0.8507,-0.3664 17.112855,17.112855 0 0 0 -0.8707,-0.3198 17.112855,17.112855 0 0 0 -0.8842,-0.2712 17.112855,17.112855 0 0 0 -0.8993,-0.226 17.112855,17.112855 0 0 0 -0.9111,-0.1752 17.112855,17.112855 0 0 0 -0.9179,-0.1243 17.112855,17.112855 0 0 0 -0.9246,-0.076 A 17.112855,17.112855 0 0 0 151.18216,0 Z"
       inkscape:export-filename="D:\code\AIClub22-23\service-project\public\favicon.ico"
       inkscape:export-xdpi="96.012901"
       inkscape:export-ydpi="96.012901" />
    <path
       id="path38178"
       style="fill:#665ee8;fill-opacity:1;stroke:none;stroke-width:2.82513;stroke-linecap:round;stroke-linejoin:round"
       d="m 32.388858,11.9507 a 17.112855,17.112855 0 0 0 -0.6286,2.6107 17.112855,17.112855 0 0 0 -0.2091,2.67681 17.112855,17.112855 0 0 0 0.2091,2.6785 17.112855,17.112855 0 0 0 0.6283,2.6099 17.112855,17.112855 0 0 0 1.0264,2.4819 17.112855,17.112855 0 0 0 1.4023,2.2906 17.112855,17.112855 0 0 0 1.7426,2.0428 17.112855,17.112855 0 0 0 2.0434,1.7429 17.112855,17.112855 0 0 0 2.2895,1.4012 17.112855,17.112855 0 0 0 2.4813,1.0292 17.112855,17.112855 0 0 0 2.7528,0.645 17.112855,17.112855 0 0 0 2.822,0.1836 17.112855,17.112855 0 0 0 2.8125,-0.2853 c -0.074,0.1017 -0.1469,0.2034 -0.1978,0.3195 -0.3571,0.636 -0.7012,1.2677 -1.0261,1.8965 -0.3266,0.6278 -0.6342,1.2521 -0.9303,1.8708 -0.2935,0.6201 -0.5732,1.2357 -0.8377,1.8471 -0.2655,0.6097 -0.5138,1.2154 -0.7478,1.8168 -0.2345,0.6007 -0.4542,1.1968 -0.6577,1.7869 -0.1949,0.5942 -0.3833,1.1798 -0.5704,1.7556 -0.1864,0.5755 -0.3387,1.1532 -0.4876,1.7208 -0.1497,0.5667 -0.2825,1.1306 -0.4028,1.686 -0.1215,0.556 -0.2289,1.1058 -0.3244,1.6482 -0.093,0.5424 -0.1751,1.0789 -0.2457,1.6069 -0.068,0.5303 -0.1244,1.051 -0.1696,1.5666 -0.042,0.5153 -0.073,1.0232 -0.093,1.5233 -0.028,0.4997 -0.028,0.99439 -0.028,1.47889 0,0.4848 0.028,0.9611 0.051,1.4301 0.031,0.4684 0.068,0.9289 0.1187,1.3812 0.051,0.4523 0.113,0.8967 0.1836,1.3315 0.074,0.4354 0.1554,0.8611 0.2486,1.2772 0.093,0.417 0.1978,0.8258 0.3116,1.2242 0.1017,0.402 0.2289,0.7904 0.3783,1.1639 0.1243,0.3817 0.2797,0.7464 0.4283,1.1072 0.1526,0.3602 0.3161,0.708 0.4859,1.0476 0.1724,0.3384 0.3503,0.6673 0.5396,0.9845 0.1893,0.3167 0.3865,0.623 0.5927,0.9193 0.2119,0.2921 0.4204,0.5809 0.6512,0.8481 0.2289,0.2684 0.4504,0.5359 0.6899,0.7865 0.2373,0.2486 0.4837,0.4877 0.7382,0.7131 0.2515,0.2288 0.5136,0.4427 0.782,0.6436 0.2712,0.1977 0.5405,0.3932 0.8255,0.565 0.2845,0.1723 0.567,0.343 0.8617,0.4933 0.2955,0.1497 0.5933,0.2912 0.8998,0.4164 0.3063,0.1299 0.6181,0.2401 0.9357,0.3373 0.3156,0.1017 0.6413,0.1808 0.969,0.2543 0.2882,0.054 0.5744,0.099 0.8512,0.1412 0.2797,0.034 0.5504,0.068 0.8165,0.09 0.2656,0.028 0.5263,0.037 0.7803,0.045 0.2571,0 0.504,0 0.7484,3e-4 0.2429,0 0.4836,-0.028 0.7167,-0.045 0.2345,-0.028 0.4619,-0.051 0.6862,-0.09 0.226,-0.037 0.4413,-0.085 0.6563,-0.1328 0.2147,-0.04 0.4224,-0.1073 0.628602,-0.1751 0.2062,-0.065 0.4063,-0.1356 0.5981,-0.2232 0.1893,-0.09 0.389,-0.1639 0.576,-0.2543 0.1865,-0.09 0.3729,-0.1893 0.5535,-0.2927 0.1836,-0.099 0.3548,-0.2147 0.5283,-0.3319 0.1695,-0.1215 0.3373,-0.2458 0.5054,-0.3693 0.1695,-0.1214 0.3232,-0.2684 0.4868,-0.4045 0.1525,-0.1441 0.3121,-0.2859 0.465,-0.4393 0.1525,-0.1526 0.2989,-0.3111 0.4483,-0.4724 0.1498,-0.1582 0.2887,-0.3317 0.4325,-0.5031 0.1328,-0.1809 0.286,-0.3484 0.4207,-0.5323 0.2712,-0.3676 0.5444,-0.7492 0.7882,-1.1625 0.2543,-0.4077 0.4998,-0.8315 0.7408,-1.2742 0.2401,-0.4427 0.4715,-0.9032 0.7017,-1.3789 0.2289,-0.4769 0.4523,-0.9688 0.6727,-1.4759 0.2232,-0.5065 0.437,-1.0292 0.6537,-1.564 0.4314,-1.0698 0.858,-2.1926 1.2931,-3.3579 0.4345,-1.164 0.8741,-2.3697 1.3354,-3.60769 0.4614,-1.2366 0.9422,-2.5065 1.4555,-3.7939 0.2571,-0.6436 0.5244,-1.2928 0.7987,-1.9454 0.2769,-0.6514 0.5611,-1.3074 0.8583,-1.9654 0.2969,-0.6577 0.6102,-1.3154 0.9303,-1.9765 0.3226,-0.6605 0.6594,-1.321 1.0097,-1.9832 0.3506,-0.6603 0.7179,-1.3194 1.1007,-1.9765 0.3831,-0.6568 0.7823,-1.312 1.1984,-1.9657 0.4167,-0.6523 0.8535,-1.3004 1.3077,-1.9451 0.2317,-0.3193 0.4653,-0.6385 0.6993,-0.9611 0.2345,-0.3198 0.4913,-0.6295 0.7277,-0.9541 0.2599,-0.3071 0.504,-0.6314 0.7631,-0.9441 0.2599,-0.3133 0.5257,-0.623 0.7964,-0.9326 0.2712,-0.3079 0.5458,-0.6167 0.8297,-0.921 0.2851,-0.3034 0.5724,-0.6077 0.8674,-0.9094 0.2935,-0.3003 0.5961,-0.6006 0.9051,-0.895 0.3071,-0.2958 0.6207,-0.5905 0.9405,-0.8826 0.3193,-0.2907 0.6475,-0.5783 0.9798,-0.8653 0.3345,-0.2839 0.6746,-0.5704 1.0241,-0.8487 0.569,-0.4938 1.1413,-0.9761 1.7157,-1.449 0.5752,-0.4721 1.1509,-0.9374 1.7335,-1.3888 0.5797,-0.4557 1.1687,-0.8945 1.7612,-1.325 0.5932,-0.4303 1.1837,-0.86 1.7939,-1.2617 0.6074,-0.4052 1.2171,-0.8072 1.8358,-1.1942 0.6198,-0.3885 1.2479,-0.7631 1.8844,-1.1278 0.6367,-0.3644 1.282,-0.7184 1.9405,-1.0586 0.6563,-0.341 1.3242,-0.6678 2.0028,-0.9868 0.68,-0.3159 1.3716,-0.621 2.0762,-0.9151 0.7051,-0.2915 1.4213,-0.5746 2.153,-0.8421 0.7314,-0.2712 1.4784,-0.5249 2.2401,-0.7693 0.7602,-0.2458 1.5394,-0.4707 2.3329,-0.6899 0.7942,-0.2175 1.6064,-0.42101 2.4356,-0.61021 0.8292,-0.1922 1.6761,-0.3662 2.5423,-0.532 0.8668,-0.1667 1.7527,-0.3139 2.6593,-0.4503 0.906,-0.1356 1.8341,-0.26 2.7828,-0.3682 -0.9445,-0.3686 -1.9197,-0.7368 -2.9274,-1.091 -0.4989,-0.1921 -1.0134,-0.3591 -1.5327,-0.5275 -0.5198,-0.1695 -1.0444,-0.3396 -1.5744,-0.5113 -0.53,-0.1724 -1.0735,-0.3193 -1.6163,-0.4871 -0.5492,-0.1469 -1.0989,-0.3096 -1.6558,-0.4605 -0.5591,-0.1469 -1.121,-0.2932 -1.6908,-0.4308 -0.5701,-0.1384 -1.1445,-0.2712 -1.725,-0.3998 -0.5817,-0.1243 -1.1665,-0.2514 -1.7567,-0.3661 -0.5907,-0.1158 -1.1863,-0.226 -1.7869,-0.3252 -0.5995,-0.1045 -1.2038,-0.1977 -1.812,-0.2864 -0.6086,-0.088 -1.2205,-0.1724 -1.8375,-0.243 -0.6159,-0.073 -1.2357,-0.1384 -1.8589,-0.1921 -0.623,-0.056 -1.249,-0.1045 -1.8782,-0.1441 -0.63,-0.039 -1.2608,-0.068 -1.8951,-0.088 -0.6342,-0.028 -1.2724,-0.031 -1.9118,-0.031 -0.6396,0 -1.2806,0 -1.9236,0.028 -0.643,0.028 -1.2863,0.051 -1.9324,0.093 -0.6455,0.042 -1.2936,0.096 -1.9414,0.1582 -0.6487,0.065 -1.2979,0.1413 -1.9482,0.2317 -0.6495,0.09 -1.2987,0.1893 -1.9499,0.304 -0.6501,0.113 -1.2999,0.2401 -1.9502,0.3811 -0.6506,0.1413 -1.3013,0.2949 -1.9511,0.4616 -0.6489,0.1695 -1.2978,0.3475 -1.9451,0.543 -0.6526,0.1808 -1.2908,0.4193 -1.9403,0.6323 -0.6495,0.2119 -1.2902,0.4636 -1.9321,0.7198 -0.6421,0.2571 -1.282,0.5263 -1.9196,0.8139 -0.6385,0.2876 -1.2756,0.5896 -1.9081,0.9111 -0.6337,0.3187 -1.2637,0.6569 -1.8912,1.0109 -0.6269,0.3554 -1.2512,0.7238 -1.8728,1.11251 -0.6212,0.389 -1.2391,0.7959 -1.853,1.2208 -0.6209,0.4155 -1.2306,0.8594 -1.8312,1.3281 a 17.112855,17.112855 0 0 0 -0.034,-2.83701 17.112855,17.112855 0 0 0 -0.5003,-2.7916 17.112855,17.112855 0 0 0 -0.9538,-2.67 17.112855,17.112855 0 0 0 -1.3826,-2.4771 17.112855,17.112855 0 0 0 -1.773102,-2.2146 17.112855,17.112855 0 0 0 -2.1149,-1.8911 17.112855,17.112855 0 0 0 -2.398,-1.5154 17.112855,17.112855 0 0 0 -2.6149,-1.099 17.112855,17.112855 0 0 0 -0.8905,-0.2599 17.112855,17.112855 0 0 0 -0.9009,-0.2119 17.112855,17.112855 0 0 0 -0.912,-0.1667 17.112855,17.112855 0 0 0 -0.9204,-0.1158 17.112855,17.112855 0 0 0 -0.9247,-0.065 17.112855,17.112855 0 0 0 -0.9263,-0.028 17.112855,17.112855 0 0 0 -0.9244,0.037 17.112855,17.112855 0 0 0 -0.9238,0.088 17.112855,17.112855 0 0 0 -0.9162,0.1327 17.112855,17.112855 0 0 0 -0.9083,0.1865 17.112855,17.112855 0 0 0 -0.8975,0.2317 17.112855,17.112855 0 0 0 -0.8803,0.2859 17.112855,17.112855 0 0 0 -0.8674,0.3294 17.112855,17.112855 0 0 0 -0.8475,0.3763 17.112855,17.112855 0 0 0 -0.8249,0.4226 17.112855,17.112855 0 0 0 -0.8015,0.4653 17.112855,17.112855 0 0 0 -0.7752,0.5074 17.112855,17.112855 0 0 0 -0.7493,0.5444 17.112855,17.112855 0 0 0 -0.7176,0.5874 17.112855,17.112855 0 0 0 -0.6817,0.6283 17.112855,17.112855 0 0 0 -0.6486,0.6633 17.112855,17.112855 0 0 0 -0.6114,0.6956 17.112855,17.112855 0 0 0 -0.5723,0.73 17.112855,17.112855 0 0 0 -0.5204,0.7647 17.112855,17.112855 0 0 0 -0.4936,0.7849 17.112855,17.112855 0 0 0 -0.4475,0.813 17.112855,17.112855 0 0 0 -0.4009,0.8351 17.112855,17.112855 0 0 0 -0.359,0.8552 17.112855,17.112855 0 0 0 -0.3125,0.8721 z"
       inkscape:export-filename="D:\code\AIClub22-23\service-project\public\favicon.ico"
       inkscape:export-xdpi="96.012901"
       inkscape:export-ydpi="96.012901" />
    <path
       id="path38180"
       style="fill:#665ee8;fill-opacity:1;stroke:none;stroke-width:2.82513;stroke-linecap:round;stroke-linejoin:round"
       d="m 199.22986,109.2542 a 17.112855,17.112855 0 0 0 -1.0261,-2.4816 17.112855,17.112855 0 0 0 -1.4035,-2.2889 17.112855,17.112855 0 0 0 -1.7448,-2.0432 17.112855,17.112855 0 0 0 -2.0415,-1.7431 17.112855,17.112855 0 0 0 -2.2892,-1.4043 17.112855,17.112855 0 0 0 -2.4816,-1.0281 17.112855,17.112855 0 0 0 -2.6107,-0.6269 17.112855,17.112855 0 0 0 -2.6776,-0.2091 17.112855,17.112855 0 0 0 -2.676,0.2119 17.112855,17.112855 0 0 0 -2.6121,0.6261 17.112855,17.112855 0 0 0 -2.6065,1.0961 17.112855,17.112855 0 0 0 -2.3906,1.5103 17.112855,17.112855 0 0 0 -2.1079,1.8841 c 0,-0.1243 0,-0.2486 -0.028,-0.3732 -0.085,-0.7246 -0.178,-1.438 -0.2845,-2.1375 -0.1045,-0.7 -0.2204,-1.386 -0.3472,-2.0606 -0.1271,-0.6741 -0.2627,-1.3366 -0.408,-1.9864 -0.1469,-0.6492 -0.2986,-1.2854 -0.463,-1.9095 -0.1638,-0.6235 -0.3356,-1.2348 -0.5181,-1.8326 -0.1921,-0.5945 -0.3831,-1.1795 -0.5704,-1.7553 -0.1865,-0.5758 -0.4034,-1.132 -0.6167,-1.6787 -0.2119,-0.5469 -0.4371,-1.08 -0.6656,-1.6007 -0.2289,-0.521 -0.4651,-1.0289 -0.706,-1.5242 -0.243,-0.4938 -0.4925,-0.9758 -0.7456,-1.4445 -0.2571,-0.4684 -0.517,-0.9235 -0.7848,-1.3662 -0.2684,-0.4418 -0.5416,-0.8713 -0.8204,-1.2868 -0.2769,-0.4165 -0.5634,-0.8199 -0.8518,-1.2095 -0.2899,-0.389 -0.5823,-0.7647 -0.8809,-1.1275 -0.2992,-0.3627 -0.6003,-0.7119 -0.9069,-1.0484 -0.3079,-0.3353 -0.6178,-0.6594 -0.9317,-0.9685 -0.3144,-0.3087 -0.6314,-0.6057 -0.9515,-0.8876 -0.3206,-0.2825 -0.6452,-0.5515 -0.9716,-0.8069 -0.3265,-0.2542 -0.6551,-0.4966 -0.9862,-0.7249 -0.3297,-0.2288 -0.6631,-0.4421 -0.9978,-0.6433 -0.3357,-0.2006 -0.6713,-0.3884 -1.0086,-0.5625 -0.3382,-0.1723 -0.6761,-0.3328 -1.0154,-0.4788 -0.3384,-0.1469 -0.6788,-0.2769 -1.0193,-0.3967 -0.3404,-0.1186 -0.6811,-0.2232 -1.0215,-0.3141 -0.3405,-0.09 -0.6806,-0.1667 -1.0205,-0.2317 -0.3393,-0.062 -0.6777,-0.1102 -1.0159,-0.1441 -0.3382,-0.037 -0.6755,-0.057 -1.0105,-0.062 -0.3351,0 -0.6685,3e-4 -0.9999,0.028 -0.3314,0.028 -0.6605,0.057 -0.9873,0.1074 -0.3269,0.051 -0.6512,0.113 -0.9725,0.1921 -0.3226,0.076 -0.6407,0.1695 -0.9554,0.2769 -0.3164,0.1017 -0.6244,0.2316 -0.9326,0.3652 -0.2656,0.1243 -0.5232,0.2571 -0.7707,0.3871 -0.2458,0.1356 -0.4856,0.2684 -0.7136,0.4071 -0.2289,0.1356 -0.4475,0.2797 -0.658,0.4218 -0.2119,0.1469 -0.4116,0.2913 -0.6049,0.4401 -0.1921,0.1498 -0.3765,0.3035 -0.5525,0.4586 -0.1752,0.1553 -0.3433,0.3135 -0.5021,0.476 -0.1582,0.161 -0.3093,0.3263 -0.452,0.4941 -0.1413,0.1667 -0.2769,0.3368 -0.4051,0.5108 -0.1272,0.1723 -0.2486,0.3478 -0.3597,0.5277 -0.1101,0.178 -0.2175,0.3616 -0.3158,0.5453 -0.099,0.1836 -0.1893,0.3726 -0.274,0.5625 -0.085,0.1921 -0.1611,0.383 -0.2317,0.5794 -0.071,0.1949 -0.1356,0.3947 -0.1921,0.5955 -0.059,0.2006 -0.1074,0.4063 -0.1554,0.6139 -0.045,0.2063 -0.085,0.415 -0.1187,0.6286 -0.034,0.2119 -0.059,0.4275 -0.085,0.6458 -0.028,0.2176 -0.04,0.4377 -0.054,0.6617 0,0.2232 -0.028,0.4489 -0.028,0.6775 0,0.4571 0,0.926 0.045,1.4035 0.034,0.4788 0.085,0.9665 0.1497,1.4662 0.068,0.4995 0.1497,1.0078 0.243,1.5281 0.096,0.5202 0.2034,1.0496 0.3232,1.5895 0.1186,0.5404 0.2514,1.0896 0.3904,1.6493 0.2797,1.1193 0.5947,2.2784 0.9278,3.4769 0.3325,1.197 0.6859,2.431 1.0399,3.7034 0.3537,1.2719 0.7111,2.5816 1.0526,3.9253 0.1695,0.6718 0.3357,1.3538 0.4975,2.0431 0.1582,0.6896 0.3142,1.3874 0.4605,2.0943 0.1469,0.7068 0.2797,1.423 0.4094,2.1462 0.1271,0.7238 0.2458,1.45639 0.3486,2.19769 0.1046,0.74021 0.195,1.48941 0.2712,2.2463 0.076,0.7563 0.1385,1.52101 0.1865,2.2945 0.045,0.7724 0.073,1.5539 0.085,2.3424 0,0.3949 0,0.79011 -5e-4,1.1885 0,0.3975 -0.028,0.7978 -0.028,1.1995 -0.028,0.4018 -0.037,0.80691 -0.062,1.2123 -0.028,0.406 -0.059,0.8128 -0.096,1.2227 -0.037,0.40881 -0.079,0.8196 -0.1299,1.23261 -0.051,0.41389 -0.1046,0.8286 -0.1667,1.2456 -0.062,0.41649 -0.13,0.83629 -0.2063,1.25659 -0.073,0.42011 -0.1553,0.84221 -0.2429,1.26631 -0.088,0.4232 -0.1836,0.8484 -0.2853,1.2755 -0.1018,0.4275 -0.2119,0.8577 -0.3292,1.2888 -0.1695,0.734 -0.3492,1.4606 -0.5362,2.1808 -0.1864,0.7209 -0.3805,1.4346 -0.5856,2.1425 -0.2034,0.7089 -0.4204,1.4106 -0.6461,2.1073 -0.2261,0.6973 -0.4622,1.3883 -0.7106,2.0748 -0.2486,0.6868 -0.5091,1.3688 -0.7828,2.0454 -0.274,0.6777 -0.5605,1.351 -0.862,2.0197 -0.3014,0.669 -0.6164,1.3346 -0.9478,1.9971 -0.3311,0.6613 -0.6769,1.3193 -1.0402,1.97559 -0.3636,0.6557 -0.7447,1.3086 -1.1428,1.9598 -0.3975,0.6512 -0.8128,1.3001 -1.2478,1.9465 -0.4345,0.6475 -0.8874,1.2936 -1.3612,1.938 -0.474,0.6439 -0.9673,1.2866 -1.4826,1.9287 -0.5147,0.6428 -1.0518,1.2849 -1.6106,1.9262 -0.5588,0.6422 -1.14,1.2821 -1.7448,1.9242 -0.6049,0.6424 -1.2335,1.2843 -1.8866,1.9273 -0.6535,0.643 -1.3312,1.2886 -2.0353,1.9338 0.9809,-0.2571 1.9864,-0.5325 3.0096,-0.8382 0.5165,-0.1384 1.0307,-0.3051 1.5499,-0.4741 0.5196,-0.1695 1.0447,-0.3393 1.5747,-0.5116 0.53,-0.1723 1.0564,-0.3729 1.5937,-0.5563 0.5308,-0.2034 1.0707,-0.3955 1.6103,-0.6006 0.5388,-0.2062 1.0792,-0.4218 1.6211,-0.6455 0.5424,-0.2232 1.0851,-0.4535 1.6304,-0.6902 0.5444,-0.2401 1.0913,-0.4822 1.6366,-0.7365 0.5452,-0.2543 1.0919,-0.5153 1.6366,-0.7874 0.5458,-0.2684 1.0902,-0.5472 1.6346,-0.8328 0.5438,-0.2868 1.0877,-0.5792 1.6284,-0.8846 0.541,-0.3034 1.0806,-0.6153 1.6177,-0.9365 0.5373,-0.3204 1.0718,-0.6492 1.6038,-0.988 0.5317,-0.339 1.0594,-0.6862 1.5846,-1.043 0.5258,-0.3548 1.0479,-0.7224 1.5651,-1.0981 0.517,-0.376 1.0312,-0.7591 1.5392,-1.1541 0.5082,-0.3938 1.0105,-0.7972 1.5083,-1.2114 0.4975,-0.4142 0.9908,-0.8368 1.477,-1.2699 0.4859,-0.43419 0.9667,-0.87809 1.44,-1.33229 0.4732,-0.454 0.9396,-0.9174 1.399,-1.3923 0.4588,-0.4743 0.9099,-0.9591 1.354,-1.4543 0.4433,-0.4964 0.8795,-1.0035 1.3064,-1.5211 0.4269,-0.5176 0.845,-1.0442 1.2538,-1.5832 0.4091,-0.539 0.8088,-1.0896 1.1981,-1.6516 0.3896,-0.561 0.7701,-1.1343 1.1394,-1.7188 0.369,-0.5845 0.7266,-1.18 1.0741,-1.7872 0.3469,-0.6079 0.6837,-1.2275 1.008,-1.8586 0.3241,-0.6311 0.636,-1.2739 0.9354,-1.9296 0.3,-0.6551 0.5879,-1.3207 0.8622,-2.0002 0.2741,-0.6803 0.5346,-1.3724 0.782,-2.0767 0.2487,-0.70461 0.482,-1.42131 0.701,-2.15111 a 17.112855,17.112855 0 0 0 1.6945,2.27571 17.112855,17.112855 0 0 0 2.0457,1.9643 17.112855,17.112855 0 0 0 2.3414,1.5987 17.112855,17.112855 0 0 0 2.5746,1.1911 17.112855,17.112855 0 0 0 2.7364,0.7489 17.112855,17.112855 0 0 0 2.8226,0.2871 17.112855,17.112855 0 0 0 2.8308,-0.1837 17.112855,17.112855 0 0 0 2.7615,-0.6478 17.112855,17.112855 0 0 0 0.873,-0.3133 17.112855,17.112855 0 0 0 0.8537,-0.3576 17.112855,17.112855 0 0 0 0.8352,-0.402 17.112855,17.112855 0 0 0 0.8122,-0.4481 17.112855,17.112855 0 0 0 0.7865,-0.4902 17.112855,17.112855 0 0 0 0.7588,-0.5317 17.112855,17.112855 0 0 0 0.7275,-0.5721 17.112855,17.112855 0 0 0 0.6975,-0.6124 17.112855,17.112855 0 0 0 0.6617,-0.6473 17.112855,17.112855 0 0 0 0.6269,-0.6831 17.112855,17.112855 0 0 0 0.5887,-0.71621 17.112855,17.112855 0 0 0 0.5481,-0.7458 17.112855,17.112855 0 0 0 0.5077,-0.7763 17.112855,17.112855 0 0 0 0.4653,-0.8021 17.112855,17.112855 0 0 0 0.4209,-0.8258 17.112855,17.112855 0 0 0 0.3755,-0.847 17.112855,17.112855 0 0 0 0.328,-0.8664 17.112855,17.112855 0 0 0 0.2831,-0.8818 17.112855,17.112855 0 0 0 0.2344,-0.8972 17.112855,17.112855 0 0 0 0.1837,-0.9086 17.112855,17.112855 0 0 0 0.1356,-0.9176 17.112855,17.112855 0 0 0 0.085,-0.9224 17.112855,17.112855 0 0 0 0.034,-0.9269 17.112855,17.112855 0 0 0 -0.028,-0.9247 17.112855,17.112855 0 0 0 -0.062,-0.9252 17.112855,17.112855 0 0 0 -0.1158,-0.9204 17.112855,17.112855 0 0 0 -0.1667,-0.9114 17.112855,17.112855 0 0 0 -0.2119,-0.9032 17.112855,17.112855 0 0 0 -0.2599,-0.8888 z"
       inkscape:export-filename="D:\code\AIClub22-23\service-project\public\favicon.ico"
       inkscape:export-xdpi="96.012901"
       inkscape:export-ydpi="96.012901" />
    <path
       id="path38182"
       style="fill:#665ee8;fill-opacity:1;stroke:none;stroke-width:2.82513;stroke-linecap:round;stroke-linejoin:round"
       d="m 7.0716578,128.6044 a 17.112855,17.112855 0 0 0 2.2889,1.4046 17.112855,17.112855 0 0 0 2.4808002,1.0267 17.112855,17.112855 0 0 0 2.6124,0.6277 17.112855,17.112855 0 0 0 2.6762,0.2091 17.112855,17.112855 0 0 0 2.6777,-0.2091 17.112855,17.112855 0 0 0 2.6118,-0.626 17.112855,17.112855 0 0 0 2.4813,-1.0261 17.112855,17.112855 0 0 0 2.289,-1.4047 17.112855,17.112855 0 0 0 2.0403,-1.7445 17.112855,17.112855 0 0 0 1.7456,-2.0417 17.112855,17.112855 0 0 0 1.464,-2.4189 17.112855,17.112855 0 0 0 1.0464,-2.6271 17.112855,17.112855 0 0 0 0.5978,-2.763 c 0.073,0.1017 0.1469,0.2035 0.2402,0.2857 0.4944,0.5362 0.9891,1.0585 1.4866,1.562 0.4961,0.5045 0.9927,0.9916 1.4919,1.4628 0.4989,0.4707 0.9981,0.927 1.4976,1.3674 0.5006,0.4387 0.9973,0.8645 1.4971,1.2727 0.4989,0.408 0.9975,0.8018 1.4961,1.1778 0.5049,0.3681 1.0035,0.7292 1.4934,1.0849 0.4893,0.3562 0.9919,0.6786 1.4857,0.9955 0.4928,0.3179 0.9883,0.6171 1.4793,0.9041 0.4913,0.2867 0.9809,0.5591 1.4671,0.8179 0.4867,0.2571 0.9718,0.5 1.4524,0.7305 0.4831,0.2289 0.9611,0.443 1.4377,0.6439 0.4769,0.2006 0.9504,0.3865 1.4202,0.5588 0.4687,0.1752 0.9376,0.3322 1.3998,0.4777 0.4631,0.1441 0.9207,0.2769 1.3756,0.3944 0.4548,0.1159 0.9043,0.2232 1.3498,0.3153 0.4461,0.09 0.8877,0.1695 1.3231,0.2373 0.4356,0.065 0.8667,0.1187 1.2913,0.1582 0.4258,0.04 0.8464,0.068 1.2606,0.082 0.4136,0.028 0.8221,0.028 1.2238,0 0.401502,0 0.795902,-0.034 1.185502,-0.065 0.3896,-0.034 0.7709,-0.082 1.1464,-0.1385 0.3749,-0.059 0.7427,-0.1299 1.1029,-0.209 0.3597,-0.082 0.712,-0.1752 1.0578,-0.2797 0.3427,-0.1102 0.6822,-0.2204 1.0077,-0.3571 0.3257,-0.1356 0.6486,-0.2627 0.9611,-0.4133 0.3113,-0.1498 0.6133,-0.3091 0.9063,-0.4817 0.2949,-0.1695 0.5797,-0.3517 0.8538,-0.5447 0.2712,-0.1977 0.541,-0.3927 0.7924,-0.6105 0.2514,-0.2175 0.5015,-0.4334 0.7354,-0.6673 0.2345,-0.2345 0.4605,-0.4741 0.6741,-0.7269 0.2175,-0.2514 0.4187,-0.5139 0.6099,-0.7857 0.1949,-0.2684 0.3693,-0.5543 0.5399,-0.8436 0.1413,-0.257 0.2712,-0.5155 0.3961,-0.7661 0.1186,-0.2543 0.2345,-0.5026 0.3379,-0.74871 0.1045,-0.2458 0.1977,-0.48929 0.2845,-0.72799 0.085,-0.243 0.161,-0.4778 0.2316,-0.7117 0.065,-0.2345 0.1271,-0.4673 0.178,-0.6958 0.051,-0.2288 0.093,-0.4554 0.1271,-0.6803 0.034,-0.226 0.056,-0.4455 0.076,-0.6653 0.028,-0.21761 0.028,-0.4348 0.028,-0.6518 0,-0.2147 0,-0.4277 -0.028,-0.6379 -0.028,-0.2091 -0.037,-0.4209 -0.065,-0.6269 -0.028,-0.2062 -0.065,-0.413 -0.1073,-0.6167 -0.037,-0.2063 -0.096,-0.40431 -0.1526,-0.6052 -0.065,-0.1977 -0.1299,-0.3969 -0.1949,-0.5947 -0.065,-0.1977 -0.1554,-0.3904 -0.2345,-0.5879 -0.09,-0.1892 -0.1752,-0.3853 -0.274,-0.578 -0.099,-0.1921 -0.2034,-0.3805 -0.3108,-0.5724 -0.1045,-0.19211 -0.226,-0.3771 -0.3447,-0.567 -0.1299,-0.1808 -0.2429,-0.3794 -0.3763,-0.5644 -0.2684,-0.3698 -0.5444,-0.7492 -0.8619,-1.1089 -0.3094,-0.3673 -0.6365,-0.7323 -0.9829,-1.0981 -0.3472,-0.3647 -0.7133,-0.7275 -1.0947,-1.0936 -0.3828,-0.3647 -0.7815,-0.7295 -1.1956,-1.0959 -0.4133,-0.3678 -0.8439,-0.7337 -1.2855,-1.1049 -0.8842,-0.741 -1.8202,-1.4936 -2.794,-2.2675 -0.9727,-0.7729 -1.9838,-1.5637 -3.018402,-2.3849 -1.0337,-0.821 -2.0928,-1.6705 -3.1585,-2.5568 -0.5322,-0.4441 -1.0676,-0.8981 -1.6035,-1.3606 -0.5337,-0.465 -1.0699,-0.9376 -1.6039,-1.4235 -0.5339,-0.4857 -1.0625,-0.9869 -1.5922,-1.4957 -0.5286,-0.511 -1.0552,-1.0337 -1.5742,-1.573 -0.5195,-0.5376 -1.0328,-1.0905 -1.5397,-1.6578 -0.5062,-0.5673 -1.006,-1.1493 -1.4993,-1.747 -0.4915,-0.5981 -0.9729,-1.2137 -1.4456,-1.8449 -0.2316,-0.3198 -0.4633,-0.6399 -0.6981,-0.9619 -0.2316,-0.3221 -0.4466,-0.6619 -0.6822,-0.9871 -0.2119,-0.3421 -0.445,-0.6744 -0.6623,-1.0173 -0.2147,-0.345 -0.4299,-0.6925 -0.641,-1.0456 -0.209,-0.3529 -0.4178,-0.7097 -0.6192,-1.0739 -0.2006,-0.3647 -0.4012,-0.7322 -0.597,-1.1057 -0.1949,-0.3729 -0.387,-0.7526 -0.5715,-1.1377 -0.1865,-0.3834 -0.3698,-0.7727 -0.5487,-1.1671 -0.1779,-0.3935 -0.35,-0.7944 -0.5203,-1.1992 -0.1667,-0.406 -0.334,-0.8179 -0.4908,-1.2363 -0.2938,-0.6936 -0.5755,-1.3872 -0.8478,-2.0793 -0.274,-0.693 -0.5359,-1.3843 -0.7851,-2.0779 -0.2543,-0.6922 -0.4896,-1.388 -0.7159,-2.0844 -0.226,-0.6972 -0.4523,-1.3916 -0.6455,-2.0962 -0.1978,-0.7029 -0.3916,-1.4069 -0.5684,-2.1149 -0.178,-0.7094 -0.3402,-1.4225 -0.4905,-2.1406 -0.1497,-0.7182 -0.287,-1.4414 -0.4071,-2.1728 -0.1215,-0.7295 -0.226,-1.4657 -0.3195,-2.2096 -0.09,-0.7444 -0.1667,-1.4964 -0.2289,-2.2572 -0.059,-0.7609 -0.1073,-1.5296 -0.1356,-2.3082 -0.031,-0.7792 -0.042,-1.5682 -0.039,-2.36799 0,-0.7995 0.028,-1.6095 0.065,-2.4319 0.039,-0.8224 0.096,-1.6578 0.1723,-2.505 0.073,-0.8478 0.1695,-1.7073 0.2797,-2.5822 0.1102,-0.8755 0.243,-1.764 0.3932,-2.6683 0.1498,-0.9041 0.3199,-1.8248 0.51,-2.7605 -0.6425,0.7843 -1.2939,1.5982 -1.9423,2.4472 -0.3365,0.4153 -0.6546,0.8526 -0.9752,1.2944 -0.3204,0.4425 -0.6459,0.8885 -0.973,1.3394 -0.3277,0.4509 -0.6354,0.9224 -0.9625,1.3866 -0.3097,0.4769 -0.634,0.9495 -0.9498,1.4326 -0.3148,0.4834 -0.6252,0.9755 -0.932,1.475 -0.3077,0.4995 -0.6114,1.0046 -0.9134,1.5168 -0.2992,0.5145 -0.5995,1.0318 -0.8911,1.5578 -0.2915,0.5263 -0.5805,1.0586 -0.8613,1.59899 -0.2837,0.5382 -0.5603,1.0835 -0.8326,1.6347 -0.2712,0.5517 -0.5399,1.1077 -0.7975,1.6727 -0.26,0.5634 -0.5128,1.1329 -0.7583,1.7084 -0.2458,0.5752 -0.4857,1.1555 -0.717,1.742 -0.2317,0.587 -0.4537,1.178 -0.6687,1.7753 -0.2176,0.5961 -0.4232,1.2004 -0.621,1.8083 -0.1978,0.6083 -0.3879,1.2205 -0.5667,1.8384 -0.1808,0.6175 -0.3489,1.2391 -0.5083,1.8668 -0.1582,0.6272 -0.3096,1.2595 -0.4486,1.8954 -0.1384,0.6371 -0.2656,1.2786 -0.3817,1.9245 -0.1158,0.6452 -0.2203,1.2942 -0.3136,1.9485 -0.093,0.6531 -0.1723,1.3108 -0.2401,1.9725 -0.068,0.6622 -0.1215,1.3286 -0.1639,1.9982 -0.042,0.6695 -0.071,1.3416 -0.085,2.0177 -0.028,0.6769 0,1.3572 0,2.0406 0,0.6831 0.042,1.3705 0.088,2.0601 0.045,0.6899 0.1073,1.382 0.1808,2.0773 0.076,0.6958 0.1695,1.3953 0.2768,2.0962 0.1102,0.701 0.2345,1.4047 0.3772,2.111 0.1441,0.706 0.3017,1.4137 0.4794,2.1248 0.178,0.711 0.3738,1.4244 0.5882,2.1394 0.2034,0.719 0.4371,1.4361 0.6973,2.1522 a 17.112855,17.112855 0 0 0 -2.7085,-0.845 17.112855,17.112855 0 0 0 -2.8096,-0.3867 17.112855,17.112855 0 0 0 -2.8339,0.082 17.112855,17.112855 0 0 0 -2.783,0.5495 17.112855,17.112855 0 0 0 -2.6542002,1.0021 17.112855,17.112855 0 0 0 -2.4523,1.4266 17.112855,17.112855 0 0 0 -2.1821,1.8127 17.112855,17.112855 0 0 0 -1.8533,2.1471 17.112855,17.112855 0 0 0 -0.5223,0.7667 17.112855,17.112855 0 0 0 -0.4803,0.7913 17.112855,17.112855 0 0 0 -0.4393,0.8162 17.112855,17.112855 0 0 0 -0.3938,0.8396 17.112855,17.112855 0 0 0 -0.3484,0.8591 17.112855,17.112855 0 0 0 -0.30140003,0.8761 17.112855,17.112855 0 0 0 -0.2515,0.8902 17.112855,17.112855 0 0 0 -0.2034,0.9055 17.112855,17.112855 0 0 0 -0.1553,0.9128 17.112855,17.112855 0 0 0 -0.1046,0.921 17.112855,17.112855 0 0 0 -0.054,0.9255 17.112855,17.112855 0 0 0 0,0.9255 17.112855,17.112855 0 0 0 0.045,0.9266 17.112855,17.112855 0 0 0 0.096,0.9224 17.112855,17.112855 0 0 0 0.1469,0.9151 17.112855,17.112855 0 0 0 0.1921,0.906 17.112855,17.112855 0 0 0 0.243,0.8942 17.112855,17.112855 0 0 0 0.28620003,0.8809 17.112855,17.112855 0 0 0 0.337,0.8639 17.112855,17.112855 0 0 0 0.3868,0.8424 17.112855,17.112855 0 0 0 0.4305,0.8219 17.112855,17.112855 0 0 0 0.4727,0.7964 17.112855,17.112855 0 0 0 0.5172,0.7698 17.112855,17.112855 0 0 0 0.5665,0.7314 17.112855,17.112855 0 0 0 0.5941,0.712 17.112855,17.112855 0 0 0 0.6348,0.6766 17.112855,17.112855 0 0 0 0.6704,0.6393 17.112855,17.112855 0 0 0 0.7023,0.606 17.112855,17.112855 0 0 0 0.7329,0.5665 z"
       inkscape:export-filename="D:\code\AIClub22-23\service-project\public\favicon.ico"
       inkscape:export-xdpi="96.012901"
       inkscape:export-ydpi="96.012901" />
    <path
       id="path38184"
       style="fill:#665ee8;fill-opacity:1;stroke:none;stroke-width:2.82513;stroke-linecap:round;stroke-linejoin:round"
       d="m 110.17886,188.73339 a 17.112855,17.112855 0 0 0 2.0431,-1.7429 17.112855,17.112855 0 0 0 1.7431,-2.0423 17.112855,17.112855 0 0 0 1.4041,-2.2906 17.112855,17.112855 0 0 0 1.027,-2.4802 17.112855,17.112855 0 0 0 0.628,-2.6112 17.112855,17.112855 0 0 0 0.2119,-2.6777 17.112855,17.112855 0 0 0 -0.2091,-2.6768 17.112855,17.112855 0 0 0 -0.6286,-2.611 17.112855,17.112855 0 0 0 -1.0286,-2.4796 17.112855,17.112855 0 0 0 -1.4024,-2.2909 17.112855,17.112855 0 0 0 -1.8482,-2.14 17.112855,17.112855 0 0 0 -2.1751,-1.807 17.112855,17.112855 0 0 0 -2.4432,-1.4224 c 0.1187,-0.04 0.2374,-0.076 0.3464,-0.1413 0.6628,-0.3046 1.3126,-0.6136 1.9448,-0.9312 0.6334,-0.3158 1.2501,-0.6379 1.8525,-0.967 0.6017,-0.3291 1.1899,-0.6628 1.7631,-1.0018 0.5721,-0.3404 1.1304,-0.6811 1.6731,-1.0303 0.5421,-0.3486 1.0707,-0.7009 1.5826,-1.0592 0.506,-0.3664 1.0035,-0.7289 1.4931,-1.0848 0.4902,-0.3554 0.9521,-0.7337 1.4061,-1.1055 0.4545,-0.3704 0.8921,-0.7492 1.3168,-1.1275 0.4246,-0.3786 0.8348,-0.7602 1.2311,-1.1425 0.3947,-0.3836 0.7761,-0.7698 1.1437,-1.1555 0.3658,-0.3893 0.7184,-0.7772 1.0566,-1.1684 0.3373,-0.3919 0.6613,-0.7846 0.9704,-1.1781 0.3105,-0.3919 0.6057,-0.78909 0.8871,-1.18379 0.2797,-0.3958 0.5475,-0.7901 0.8001,-1.1862 0.2514,-0.3967 0.4915,-0.7911 0.717,-1.1863 0.2232,-0.3966 0.4359,-0.7916 0.6331,-1.1854 0.1949,-0.3947 0.3808,-0.7877 0.55,-1.1792 0.1696,-0.3924 0.3252,-0.7843 0.4673,-1.1736 0.1413,-0.389 0.2712,-0.7763 0.3845,-1.162 0.1159,-0.3842 0.2147,-0.767 0.3034,-1.1478 0.088,-0.3811 0.1611,-0.7583 0.2232,-1.1329 0.059,-0.3749 0.1074,-0.7458 0.1413,-1.1137 0.034,-0.3672 0.054,-0.7311 0.062,-1.0919 0,-0.3605 0,-0.7167 -0.028,-1.0687 -0.028,-0.3518 -0.051,-0.6987 -0.096,-1.0419 -0.045,-0.3422 -0.1045,-0.6789 -0.178,-1.0109 -0.071,-0.3331 -0.1553,-0.6599 -0.2542,-0.9803 -0.1045,-0.3187 -0.2062,-0.6356 -0.3359,-0.9422 -0.13,-0.3065 -0.2571,-0.6108 -0.4071,-0.9057 -0.1498,-0.2952 -0.3088,-0.5845 -0.4831,-0.8656 -0.1724,-0.2831 -0.3594,-0.5569 -0.5588,-0.823 -0.195,-0.2684 -0.4131,-0.52241 -0.6354,-0.77411 -0.2006,-0.2147 -0.4063,-0.4181 -0.6063,-0.6133 -0.2062,-0.1921 -0.4054,-0.3791 -0.6077,-0.5529 -0.2005,-0.1752 -0.4042,-0.3393 -0.6045,-0.4955 -0.2063,-0.1554 -0.4043,-0.3015 -0.6055,-0.4393 -0.2034,-0.1356 -0.4051,-0.2656 -0.6068,-0.384 -0.2034,-0.1186 -0.4046,-0.2288 -0.608,-0.3302 -0.2034,-0.1017 -0.4059,-0.1921 -0.6096,-0.2769 -0.2034,-0.082 -0.4057,-0.1582 -0.6111,-0.2288 -0.2034,-0.068 -0.4074,-0.13 -0.6128,-0.178 -0.2034,-0.051 -0.4113,-0.096 -0.6161,-0.1328 -0.2063,-0.037 -0.4131,-0.065 -0.6199,-0.088 -0.2062,-0.028 -0.4141,-0.034 -0.6226,-0.042 -0.2063,0 -0.4173,0 -0.6258,0 -0.2091,0 -0.4204,0.028 -0.6317,0.042 -0.2091,0.028 -0.421,0.048 -0.6345,0.082 -0.2147,0.034 -0.4249,0.076 -0.6405,0.1186 -0.2147,0.04 -0.4286,0.099 -0.6458,0.1526 -0.2119,0.068 -0.4357,0.113 -0.6532,0.1836 -0.4345,0.1413 -0.8806,0.2862 -1.3207,0.4769 -0.445,0.1808 -0.8931,0.3791 -1.3482,0.5955 -0.4543,0.2176 -0.9122,0.4538 -1.3784,0.7032 -0.4658,0.2486 -0.9351,0.5179 -1.4117,0.7984 -0.4774,0.2797 -0.9586,0.576 -1.4479,0.8812 -0.978,0.61191 -1.9832,1.26961 -3.02,1.95661 -1.0357,0.6863 -2.1002,1.4036 -3.2009,2.1336 -1.1004,0.7294 -2.2355,1.4741 -3.4077,2.214 -0.5868,0.369 -1.184,0.7377 -1.7894,1.1047 -0.6071,0.3636 -1.2225,0.7274 -1.8496,1.0851 -0.6269,0.3579 -1.266,0.7083 -1.9146,1.0524 -0.6492,0.3446 -1.3092,0.6839 -1.9824,1.0108 -0.6718,0.328 -1.3564,0.6455 -2.0525,0.9521 -0.6958,0.3062 -1.4038,0.6017 -2.1248,0.8862 -0.7207,0.2825 -1.4549,0.5501 -2.2013,0.8046 -0.3758,0.1215 -0.7518,0.243 -1.1306,0.3667 -0.378,0.1215 -0.7589,0.2458 -1.1496,0.3438 -0.391,0.096 -0.7789,0.2147 -1.1721,0.3156 -0.395,0.099 -0.7913,0.1949 -1.1925,0.2865 -0.4003,0.09 -0.804,0.1779 -1.2126,0.2571 -0.4093,0.079 -0.8204,0.1553 -1.2362,0.226 -0.4142,0.073 -0.8354,0.1356 -1.2586,0.1921 -0.4224,0.059 -0.849,0.113 -1.2795,0.161 -0.4295,0.048 -0.8637,0.088 -1.3013,0.1215 -0.4379,0.034 -0.8811,0.065 -1.3275,0.085 -0.7504,0.065 -1.4971,0.1187 -2.2395,0.1639 -0.7433,0.045 -1.4821,0.082 -2.2189,0.1045 -0.7368,0.028 -1.4713,0.037 -2.2036,0.037 -0.7331,2e-4 -1.4631,0 -2.1928,-0.034 -0.73,-0.028 -1.4592,-0.062 -2.1872,-0.1131 -0.7292,-0.051 -1.458102,-0.1158 -2.187302,-0.1949 -0.7294,-0.079 -1.4597,-0.1723 -2.1923,-0.2842 -0.7311,-0.1102 -1.464,-0.2373 -2.2002,-0.3788 -0.7359,-0.1441 -1.4747,-0.3037 -2.2171,-0.4812 -0.7422,-0.178 -1.4878,-0.3712 -2.2367,-0.5853 -0.7504,-0.2119 -1.5047,-0.4441 -2.2641,-0.6956 -0.7588,-0.2514 -1.5224,-0.5223 -2.2923,-0.8142 -0.7704,-0.2907 -1.547,-0.6032 -2.3296,-0.9365 -0.7834,-0.3328 -1.5716,-0.6879 -2.3691,-1.0648 -0.7981,-0.3766 -1.6027,-0.7761 -2.4161,-1.1987 -0.8133,-0.4227 -1.6369,-0.8679 -2.468,-1.338 0.5475,0.8535 1.1201,1.7245 1.7273,2.6034 0.2909,0.4483 0.6085,0.8859 0.9297,1.3275 0.3218,0.4416 0.6456,0.8888 0.9733,1.3394 0.3274,0.4509 0.6808,0.8893 1.0213,1.3439 0.3576,0.4419 0.7071,0.8961 1.069,1.3459 0.3624,0.4486 0.7345,0.8961 1.1148,1.3422 0.38,0.447 0.7664,0.8919 1.1603,1.3374 0.3966,0.4436 0.7958,0.8888 1.206,1.3287 0.4105,0.4402 0.8275,0.87949 1.2547,1.31339 0.424,0.4362 0.8574,0.8676 1.2973,1.297 0.4407,0.4289 0.8868,0.8557 1.3444,1.2756 0.4557,0.4206 0.9191,0.8376 1.3906,1.249 0.4706,0.4121 0.9486,0.8187 1.4351,1.2201 0.4868,0.4009 0.9801,0.7956 1.4818,1.1846 0.4998,0.3904 1.0108,0.7735 1.5278,1.1493 0.5176,0.3754 1.0408,0.7461 1.5734,1.1071 0.5317,0.3617 1.0704,0.7148 1.6182,1.0603 0.5475,0.345 1.1021,0.6837 1.664,1.0123 0.563302,0.328 1.134002,0.648 1.712302,0.9577 0.578,0.3096 1.1626,0.6102 1.7564,0.9003 0.5927,0.2896 1.1933,0.569 1.8016,0.8383 0.6091,0.2684 1.2261,0.5263 1.8502,0.7724 0.624,0.2457 1.2543,0.4811 1.8931,0.7031 0.639,0.2232 1.2863,0.4326 1.9411,0.6292 0.6541,0.1977 1.3168,0.3819 1.9867,0.5526 0.6701,0.1695 1.347,0.3263 2.0315,0.4692 0.6857,0.1413 1.379,0.2713 2.0793,0.3843 0.7004,0.113 1.4081,0.2118 2.1242,0.2935 0.7159,0.082 1.4377,0.1497 2.1689,0.2006 0.7314,0.051 1.4702,0.085 2.2166,0.1017 0.747,0.028 1.5007,0.028 2.2624,0 a 17.112855,17.112855 0 0 0 -1.6406,2.3149 17.112855,17.112855 0 0 0 -1.236,2.5525 17.112855,17.112855 0 0 0 -0.797,2.7209 17.112855,17.112855 0 0 0 -0.3373,2.8166 17.112855,17.112855 0 0 0 0.1328,2.8339 17.112855,17.112855 0 0 0 0.5992,2.7732 17.112855,17.112855 0 0 0 1.0495,2.6352 17.112855,17.112855 0 0 0 1.4694,2.4263 17.112855,17.112855 0 0 0 0.5678,0.7337 17.112855,17.112855 0 0 0 0.6041,0.7011 17.112855,17.112855 0 0 0 0.6404,0.6702 17.112855,17.112855 0 0 0 0.6769,0.6339 17.112855,17.112855 0 0 0 0.7094,0.5967 17.112855,17.112855 0 0 0 0.7402,0.5574 17.112855,17.112855 0 0 0 0.7687,0.515 17.112855,17.112855 0 0 0 0.7981,0.4741 17.112855,17.112855 0 0 0 0.8201,0.4294 17.112855,17.112855 0 0 0 0.8433,0.3851 17.112855,17.112855 0 0 0 0.8631,0.3384 17.112855,17.112855 0 0 0 0.8786,0.291 17.112855,17.112855 0 0 0 0.8953,0.243 17.112855,17.112855 0 0 0 0.9066,0.1949 17.112855,17.112855 0 0 0 0.9154,0.1441 17.112855,17.112855 0 0 0 0.9215,0.096 17.112855,17.112855 0 0 0 0.9255,0.045 17.112855,17.112855 0 0 0 0.9261,0 17.112855,17.112855 0 0 0 0.9258,-0.054 17.112855,17.112855 0 0 0 0.9207,-0.1074 17.112855,17.112855 0 0 0 0.9148,-0.1554 17.112855,17.112855 0 0 0 0.9035,-0.2034 17.112855,17.112855 0 0 0 0.8919,-0.2543 17.112855,17.112855 0 0 0 0.8707,-0.3127 17.112855,17.112855 0 0 0 0.8608,-0.3449 17.112855,17.112855 0 0 0 0.8396,-0.3947 17.112855,17.112855 0 0 0 0.8151,-0.4402 17.112855,17.112855 0 0 0 0.7935,-0.4805 17.112855,17.112855 0 0 0 0.7651,-0.5218 z"
       inkscape:export-filename="D:\code\AIClub22-23\service-project\public\favicon.ico"
       inkscape:export-xdpi="96.012901"
       inkscape:export-ydpi="96.012901" />
  </g>
</svg>
